<svg width="20" height="19" viewBox="0 0 20 19" fill="none" xmlns="http://www.w3.org/2000/svg">
<path d="M10 19.0001L8.55 17.7001C6.86667 16.1834 5.475 14.8751 4.375 13.7751C3.275 12.6751 2.4 11.6918 1.75 10.8251C1.1 9.94175 0.641667 9.13342 0.375 8.40009C0.125 7.66675 0 6.91675 0 6.15009C0 4.58342 0.525 3.27509 1.575 2.22509C2.625 1.17509 3.93333 0.650085 5.5 0.650085C6.36667 0.650085 7.19167 0.833419 7.975 1.20009C8.75833 1.56675 9.43333 2.08342 10 2.75009C10.5667 2.08342 11.2417 1.56675 12.025 1.20009C12.8083 0.833419 13.6333 0.650085 14.5 0.650085C16.0667 0.650085 17.375 1.17509 18.425 2.22509C19.475 3.27509 20 4.58342 20 6.15009C20 6.91675 19.8667 7.66675 19.6 8.40009C19.35 9.13342 18.9 9.94175 18.25 10.8251C17.6 11.6918 16.725 12.6751 15.625 13.7751C14.525 14.8751 13.1333 16.1834 11.45 17.7001L10 19.0001ZM10 16.3001C11.6 14.8668 12.9167 13.6418 13.95 12.6251C14.9833 11.5918 15.8 10.7001 16.4 9.95009C17 9.18342 17.4167 8.50842 17.65 7.92509C17.8833 7.32509 18 6.73342 18 6.15009C18 5.15009 17.6667 4.31675 17 3.65009C16.3333 2.98342 15.5 2.65009 14.5 2.65009C13.7167 2.65009 12.9917 2.87509 12.325 3.32509C11.6583 3.75842 11.2 4.31675 10.95 5.00009H9.05C8.8 4.31675 8.34167 3.75842 7.675 3.32509C7.00833 2.87509 6.28333 2.65009 5.5 2.65009C4.5 2.65009 3.66667 2.98342 3 3.65009C2.33333 4.31675 2 5.15009 2 6.15009C2 6.73342 2.11667 7.32509 2.35 7.92509C2.58333 8.50842 3 9.18342 3.6 9.95009C4.2 10.7001 5.01667 11.5918 6.05 12.6251C7.08333 13.6418 8.4 14.8668 10 16.3001Z" fill="#FF3B30"/>
</svg>
